<svg xmlns="http://www.w3.org/2000/svg" width="5417" height="5417" viewBox="0 0 5417 5417" version="1.1">
	<path d="M 3607.500 1292.662 C 3416.787 1300.029, 3253.536 1336.853, 3088.902 1409.641 C 3059.037 1422.845, 3000.853 1451.810, 2972.500 1467.586 C 2800.080 1563.530, 2651.562 1691.254, 2533.702 1844.951 C 2461.041 1939.706, 2399.890 2044.734, 2351.590 2157.729 C 2291.212 2298.983, 2255.542 2447.519, 2244.540 2603.500 C 2239.612 2673.382, 2239.967 2752.224, 2245.535 2824.500 C 2257.144 2975.159, 2293.032 3121.894, 2352.549 3262.043 C 2440.231 3468.513, 2568.556 3644.697, 2735.500 3787.816 C 2844.196 3881, 2969.905 3959.192, 3103.500 4016.716 C 3290.641 4097.297, 3492.140 4130.189, 3708.500 4115.477 C 3886.442 4103.377, 4044.686 4060.537, 4187.139 3985.901 C 4330.802 3910.630, 4449.694 3825.107, 4568.459 3711.605 C 4577.030 3703.413, 4584.194 3696.888, 4584.377 3697.105 C 4584.560 3697.322, 4601.463 3789.975, 4621.939 3903 C 4642.415 4016.025, 4659.854 4112.212, 4660.693 4116.750 L 4662.218 4125 4933.609 4125 C 5082.874 4125, 5205 4124.658, 5205 4124.240 C 5205 4123.822, 5203.440 4117.790, 5201.534 4110.836 C 5156.082 3945.011, 5120.173 3676.493, 5097.046 3329.500 C 5083.884 3132.011, 5075.432 2922.151, 5071.997 2707.500 C 5070.784 2631.735, 5069.019 2600.168, 5062.939 2545.547 C 5043.111 2367.412, 4991.523 2201.835, 4905.895 2041.500 C 4767.079 1781.574, 4554.376 1574.214, 4290 1441.076 C 4106.742 1348.790, 3923.829 1301.443, 3718 1293.016 C 3696.463 1292.135, 3626.926 1291.912, 3607.500 1292.662 M 1555 1299.020 C 1386.785 1307.068, 1239.505 1337.809, 1095.982 1394.830 C 924.325 1463.029, 768.128 1567.389, 626.513 1708.500 C 427.851 1906.455, 301.146 2132.213, 244.586 2389 C 210.589 2543.351, 202.169 2715.820, 220.566 2881 C 241.804 3071.685, 297.730 3244.360, 390.763 3406.500 C 431.543 3477.571, 483.437 3550.817, 539.548 3616.500 C 589.113 3674.521, 657.479 3742.887, 715.500 3792.452 C 888.539 3940.274, 1084.850 4038.905, 1301.500 4086.874 C 1447.017 4119.094, 1611.889 4128.841, 1768 4114.453 C 2025.588 4090.713, 2257.702 4001.366, 2460.904 3847.734 C 2479.834 3833.423, 2502.618 3815.430, 2503.375 3814.197 C 2503.610 3813.813, 2498.632 3807.425, 2492.312 3800 C 2376.618 3664.078, 2277.607 3500.598, 2212.810 3338.505 C 2209.513 3330.258, 2206.596 3323.156, 2206.328 3322.722 C 2206.060 3322.288, 2202.005 3325.564, 2197.317 3330.002 C 2183.560 3343.023, 2160.991 3362.532, 2143.524 3376.500 C 2021.081 3474.414, 1883.854 3531.906, 1729.500 3549.958 C 1692.687 3554.263, 1671.326 3555.378, 1625 3555.410 C 1581.568 3555.441, 1566.931 3554.814, 1532 3551.426 C 1338.820 3532.688, 1169.677 3451.833, 1026.953 3310 C 859.854 3143.945, 776.064 2942.765, 776.015 2707.500 C 775.979 2532.607, 824.306 2373.785, 919.334 2236.500 C 964.543 2171.188, 1024.131 2106.368, 1088 2053.025 C 1118.678 2027.403, 1163.096 1995.965, 1197.135 1975.782 C 1306.953 1910.665, 1420.818 1875.783, 1559.500 1864.770 C 1581.085 1863.057, 1667.006 1863.070, 1689 1864.791 C 1779.877 1871.901, 1860.061 1890.008, 1937 1920.795 C 2027.593 1957.045, 2116.039 2013.618, 2191.624 2083.661 L 2202.748 2093.969 2212.527 2069.735 C 2241.214 1998.641, 2278.896 1921.746, 2318.438 1853.611 C 2365.807 1771.987, 2424.434 1688.528, 2485.179 1616.243 C 2492.230 1607.851, 2497.981 1600.651, 2497.958 1600.243 C 2497.910 1599.403, 2485.047 1589.236, 2461.500 1571.425 C 2315.325 1460.858, 2154.873 1383.717, 1980.362 1340.109 C 1894.002 1318.528, 1814.420 1306.609, 1712 1299.916 C 1691.128 1298.552, 1578.248 1297.908, 1555 1299.020 M 3608.936 1858.047 C 3452.088 1864.604, 3301.919 1913.561, 3171.907 2000.526 C 3123.892 2032.643, 3084.913 2064.858, 3041.974 2107.911 C 2982.091 2167.955, 2935.418 2230.615, 2895.168 2305 C 2841.639 2403.928, 2808.020 2515.332, 2797.546 2628.500 C 2792.344 2684.703, 2793.080 2749.624, 2799.552 2805.500 C 2823.842 3015.197, 2925.289 3207.857, 3085 3347.599 C 3138.389 3394.313, 3196.049 3433.264, 3259.500 3465.478 C 3347.420 3510.114, 3442.705 3539.254, 3539 3550.955 C 3578.907 3555.805, 3590.388 3556.418, 3642 3556.460 C 3692.494 3556.501, 3705.341 3555.912, 3740.244 3551.956 C 3964.778 3526.507, 4169.202 3412.715, 4310.586 3234.476 C 4452.471 3055.606, 4516.051 2826.568, 4486.992 2599 C 4470.511 2469.940, 4424.672 2346.913, 4352.486 2238 C 4305.320 2166.838, 4243.236 2098.699, 4177 2045.399 C 4015.962 1915.812, 3814.728 1849.444, 3608.936 1858.047" stroke="none" fill="black" fill-rule="evenodd"/>
</svg>