<svg width="53" height="51" viewBox="0 0 53 51" fill="none" xmlns="http://www.w3.org/2000/svg">
<g filter="url(#filter0_d_154_2376)">
<rect x="5.5" y="2" width="42" height="40" rx="12" fill="#E05A1B"/>
<path fill-rule="evenodd" clip-rule="evenodd" d="M24.6633 12.7373C25.3575 11.1253 27.643 11.1253 28.3371 12.7373L29.9232 16.4202C30.0679 16.7563 30.3848 16.9866 30.7493 17.0204L34.742 17.3907C36.4896 17.5528 37.1958 19.7264 35.8773 20.8847L32.8647 23.5312C32.5898 23.7727 32.4687 24.1453 32.5492 24.5023L33.4308 28.4141C33.8167 30.1262 31.9677 31.4696 30.4587 30.5735L27.0108 28.5262C26.6961 28.3393 26.3044 28.3393 25.9897 28.5262L22.5418 30.5735C21.0327 31.4696 19.1837 30.1262 19.5696 28.4141L20.4512 24.5023C20.5317 24.1453 20.4107 23.7727 20.1357 23.5312L17.1232 20.8847C15.8046 19.7264 16.5109 17.5528 18.2584 17.3907L22.2512 17.0204C22.6156 16.9866 22.9325 16.7563 23.0773 16.4202L24.6633 12.7373ZM28.0862 17.2112L26.5002 13.5283L24.9142 17.2112C24.4799 18.2198 23.5293 18.9104 22.4359 19.0118L18.4431 19.3821L21.4557 22.0286C22.2806 22.7533 22.6437 23.8708 22.4023 24.942L21.5207 28.8538L24.9685 26.8065C25.9127 26.2459 27.0877 26.2459 28.0319 26.8065L31.4798 28.8538L30.5981 24.942C30.3567 23.8708 30.7198 22.7533 31.5448 22.0286L34.5573 19.3821L30.5646 19.0118C29.4712 18.9104 28.5206 18.2198 28.0862 17.2112Z" fill="#FEEFE9"/>
</g>
<defs>
<filter id="filter0_d_154_2376" x="-4.76837e-07" y="-2.38419e-07" width="53" height="51" filterUnits="userSpaceOnUse" color-interpolation-filters="sRGB">
<feFlood flood-opacity="0" result="BackgroundImageFix"/>
<feColorMatrix in="SourceAlpha" type="matrix" values="0 0 0 0 0 0 0 0 0 0 0 0 0 0 0 0 0 0 127 0" result="hardAlpha"/>
<feOffset dy="3.5"/>
<feGaussianBlur stdDeviation="2.75"/>
<feColorMatrix type="matrix" values="0 0 0 0 0 0 0 0 0 0 0 0 0 0 0 0 0 0 0.02 0"/>
<feBlend mode="normal" in2="BackgroundImageFix" result="effect1_dropShadow_154_2376"/>
<feBlend mode="normal" in="SourceGraphic" in2="effect1_dropShadow_154_2376" result="shape"/>
</filter>
</defs>
</svg>
