<svg width="16" height="17" viewBox="0 0 16 17" fill="none" xmlns="http://www.w3.org/2000/svg">
<g clip-path="url(#clip0_593_13408)">
<path d="M15.4313 6.814L14.9066 6.1C14.5431 5.60529 14.0685 5.2028 13.521 4.92491C12.9736 4.64701 12.3686 4.50148 11.7546 4.5H4.25529C3.65397 4.50157 3.06104 4.64118 2.52219 4.90806C1.98334 5.17494 1.51296 5.56197 1.14729 6.03933L0.599957 6.75533C0.155612 7.34154 -0.0533038 8.07279 0.0143045 8.80525C0.0819128 9.53772 0.421151 10.2184 0.965291 10.7133L6.29196 15.8513C6.75981 16.2686 7.3651 16.4986 7.99196 16.4973C8.6321 16.4961 9.24929 16.2587 9.72529 15.8307L15.016 10.742C15.5632 10.2574 15.9093 9.58556 15.9862 8.85863C16.0631 8.13171 15.8651 7.40233 15.4313 6.814ZM13.8313 6.88533L14.356 7.60133C14.4087 7.6746 14.4551 7.75221 14.4946 7.83333H11.3006C11.2524 7.51408 11.1692 7.2011 11.0526 6.9L10.626 5.83333H11.7546C12.1589 5.8341 12.5574 5.92967 12.9181 6.11237C13.2787 6.29508 13.5915 6.55982 13.8313 6.88533ZM7.99329 13.892L6.14729 9.712C6.08052 9.5352 6.03009 9.35266 5.99662 9.16667H9.96463C9.93666 9.31325 9.89743 9.45745 9.84729 9.598L7.99329 13.892ZM6.06663 7.83333C6.0945 7.71381 6.12946 7.59605 6.17129 7.48067L6.82729 5.83333H9.18996L9.81463 7.39533C9.86947 7.53796 9.91403 7.68434 9.94796 7.83333H6.06663ZM2.20729 6.84733C2.44833 6.5329 2.75831 6.27797 3.11337 6.10217C3.46843 5.92638 3.8591 5.8344 4.25529 5.83333H5.38862L4.93329 6.986C4.82343 7.25949 4.74146 7.54338 4.68862 7.83333H1.49662C1.54235 7.7391 1.59752 7.64976 1.66129 7.56667L2.20729 6.84733ZM1.87396 9.736C1.70004 9.57824 1.56341 9.38377 1.47396 9.16667H4.65529C4.6995 9.52585 4.78611 9.87853 4.91329 10.2173L6.79796 14.484L1.87396 9.736ZM9.18062 14.5093L11.0833 10.1C11.1937 9.79824 11.2706 9.48525 11.3126 9.16667H14.5333C14.4389 9.39552 14.2948 9.60049 14.1113 9.76667L9.18062 14.5093Z" fill="#E05A1B"/>
<path d="M7.99992 3.16667C8.17673 3.16667 8.3463 3.09643 8.47133 2.9714C8.59635 2.84638 8.66659 2.67681 8.66659 2.5V1.16667C8.66659 0.989856 8.59635 0.820286 8.47133 0.695262C8.3463 0.570238 8.17673 0.5 7.99992 0.5C7.82311 0.5 7.65354 0.570238 7.52852 0.695262C7.40349 0.820286 7.33325 0.989856 7.33325 1.16667V2.5C7.33325 2.67681 7.40349 2.84638 7.52852 2.9714C7.65354 3.09643 7.82311 3.16667 7.99992 3.16667Z" fill="#E05A1B"/>
<path d="M11.0352 3.10028C11.1139 3.13985 11.1997 3.16344 11.2876 3.16966C11.3754 3.17589 11.4637 3.16463 11.5472 3.13655C11.6307 3.10847 11.7078 3.06412 11.7741 3.00605C11.8403 2.94799 11.8944 2.87737 11.9332 2.79828L12.5999 1.46495C12.6789 1.3067 12.6918 1.12354 12.6358 0.955756C12.5798 0.787973 12.4595 0.649313 12.3012 0.570279C12.143 0.491244 11.9598 0.478309 11.792 0.53432C11.6242 0.590331 11.4856 0.710699 11.4065 0.868945L10.7399 2.20228C10.7001 2.28059 10.6761 2.36599 10.6694 2.45358C10.6627 2.54117 10.6734 2.62923 10.7009 2.71267C10.7283 2.79612 10.772 2.87333 10.8293 2.93985C10.8867 3.00636 10.9567 3.06089 11.0352 3.10028Z" fill="#E05A1B"/>
<path d="M4.07004 2.79828C4.14907 2.95697 4.28791 3.07776 4.456 3.13408C4.6241 3.19041 4.80768 3.17765 4.96637 3.09861C5.12506 3.01958 5.24585 2.88074 5.30217 2.71265C5.3585 2.54455 5.34574 2.36097 5.2667 2.20228L4.60004 0.868945C4.5609 0.79059 4.50672 0.72071 4.44058 0.663295C4.37444 0.60588 4.29764 0.562054 4.21456 0.53432C4.04678 0.478309 3.86362 0.491244 3.70537 0.570279C3.54713 0.649313 3.42676 0.787973 3.37075 0.955756C3.31474 1.12354 3.32767 1.3067 3.4067 1.46495L4.07004 2.79828Z" fill="#E05A1B"/>
</g>
<defs>
<clipPath id="clip0_593_13408">
<rect width="16" height="16" fill="white" transform="translate(0 0.5)"/>
</clipPath>
</defs>
</svg>
