<svg width="53" height="51" viewBox="0 0 53 51" fill="none" xmlns="http://www.w3.org/2000/svg">
<g filter="url(#filter0_d_599_13765)">
<rect x="5.5" y="2" width="42" height="40" rx="12" fill="#E05A1B"/>
<path fill-rule="evenodd" clip-rule="evenodd" d="M26.5 16C24.2909 16 22.5 17.7909 22.5 20C22.5 22.2091 24.2909 24 26.5 24C28.7091 24 30.5 22.2091 30.5 20C30.5 17.7909 28.7091 16 26.5 16ZM26.5 18C25.3954 18 24.5 18.8954 24.5 20C24.5 21.1046 25.3954 22 26.5 22C27.6046 22 28.5 21.1046 28.5 20C28.5 18.8954 27.6046 18 26.5 18Z" fill="#FEEFE9"/>
<path fill-rule="evenodd" clip-rule="evenodd" d="M25.5901 32.5958C25.7059 32.6753 25.7981 32.7366 25.8626 32.7788L25.9687 32.8472C26.2933 33.0504 26.7061 33.0508 27.0307 32.8476L27.1375 32.7788C27.2019 32.7366 27.2941 32.6753 27.4099 32.5958C27.6415 32.4367 27.9685 32.2041 28.3591 31.9041C29.1386 31.3054 30.1801 30.4322 31.2247 29.3336C33.2857 27.1661 35.5 23.9725 35.5 20.1818C35.5 17.7538 34.5571 15.4208 32.8719 13.6973C31.1859 11.973 28.8943 11 26.5 11C24.1057 11 21.8141 11.973 20.1281 13.6973C18.4429 15.4208 17.5 17.7538 17.5 20.1818C17.5 23.9725 19.7143 27.1661 21.7753 29.3336C22.8199 30.4322 23.8614 31.3054 24.6409 31.9041C25.0315 32.2041 25.3585 32.4367 25.5901 32.5958ZM26.5 13C24.6508 13 22.8727 13.7511 21.5582 15.0955C20.2428 16.4407 19.5 18.2699 19.5 20.1818C19.5 23.2007 21.2857 25.9162 23.2247 27.9554C24.1801 28.9602 25.1386 29.7646 25.8591 30.3179C26.1046 30.5065 26.3215 30.6651 26.5 30.7918C26.6785 30.6651 26.8954 30.5065 27.1409 30.3179C27.8614 29.7646 28.8199 28.9602 29.7753 27.9554C31.7143 25.9162 33.5 23.2007 33.5 20.1818C33.5 18.2699 32.7572 16.4407 31.4418 15.0955C30.1273 13.7511 28.3492 13 26.5 13Z" fill="#FEEFE9"/>
</g>
<defs>
<filter id="filter0_d_599_13765" x="-4.76837e-07" y="-2.38419e-07" width="53" height="51" filterUnits="userSpaceOnUse" color-interpolation-filters="sRGB">
<feFlood flood-opacity="0" result="BackgroundImageFix"/>
<feColorMatrix in="SourceAlpha" type="matrix" values="0 0 0 0 0 0 0 0 0 0 0 0 0 0 0 0 0 0 127 0" result="hardAlpha"/>
<feOffset dy="3.5"/>
<feGaussianBlur stdDeviation="2.75"/>
<feColorMatrix type="matrix" values="0 0 0 0 0 0 0 0 0 0 0 0 0 0 0 0 0 0 0.02 0"/>
<feBlend mode="normal" in2="BackgroundImageFix" result="effect1_dropShadow_599_13765"/>
<feBlend mode="normal" in="SourceGraphic" in2="effect1_dropShadow_599_13765" result="shape"/>
</filter>
</defs>
</svg>
