<svg width="53" height="51" viewBox="0 0 53 51" fill="none" xmlns="http://www.w3.org/2000/svg">
<g filter="url(#filter0_d_154_2368)">
<rect x="5.5" y="2" width="42" height="40" rx="12" fill="#E05A1B"/>
<path fill-rule="evenodd" clip-rule="evenodd" d="M31.7929 13.2929C32.1834 12.9024 32.8166 12.9024 33.2071 13.2929L36.2071 16.2929C36.5976 16.6834 36.5976 17.3166 36.2071 17.7071L33.2071 20.7071C32.8166 21.0976 32.1834 21.0976 31.7929 20.7071C31.4024 20.3166 31.4024 19.6834 31.7929 19.2929L32.9858 18.1H31.6339C30.1006 18.1 28.7417 18.851 27.5268 19.9414C27.1158 20.3103 26.4835 20.2762 26.1146 19.8651C25.7457 19.4541 25.7799 18.8219 26.1909 18.453C27.5917 17.1957 29.4088 16.1 31.6339 16.1H33.1858L31.7929 14.7071C31.4024 14.3166 31.4024 13.6834 31.7929 13.2929ZM16.5 17.1C16.5 16.5477 16.9477 16.1 17.5 16.1C21.3246 16.1 23.7406 19.0456 25.6944 21.473C25.7677 21.5642 25.8405 21.6548 25.9128 21.7447C26.8547 22.917 27.7086 23.9797 28.6313 24.7835C29.6035 25.6305 30.5541 26.1 31.6291 26.1H33.1858L31.7929 24.7071C31.4024 24.3166 31.4024 23.6834 31.7929 23.2929C32.1834 22.9024 32.8166 22.9024 33.2071 23.2929L36.2071 26.2929C36.5976 26.6834 36.5976 27.3166 36.2071 27.7071L33.2071 30.7071C32.8166 31.0976 32.1834 31.0976 31.7929 30.7071C31.4024 30.3166 31.4024 29.6834 31.7929 29.2929L32.9858 28.1H31.6291C29.8977 28.1 28.4975 27.3195 27.3175 26.2915C26.3362 25.4366 25.44 24.3486 24.5918 23.2941C23.7529 24.3419 22.8588 25.4156 21.8778 26.2661C20.677 27.3072 19.2509 28.1 17.5054 28.1C16.9531 28.1 16.5054 27.6523 16.5054 27.1C16.5054 26.5477 16.9531 26.1 17.5054 26.1C18.594 26.1 19.5713 25.6188 20.5677 24.7549C21.5018 23.9451 22.3682 22.8757 23.2991 21.7073C21.5469 19.6323 19.8522 18.1 17.5 18.1C16.9477 18.1 16.5 17.6523 16.5 17.1Z" fill="#FEEFE9"/>
</g>
<defs>
<filter id="filter0_d_154_2368" x="-4.76837e-07" y="-2.38419e-07" width="53" height="51" filterUnits="userSpaceOnUse" color-interpolation-filters="sRGB">
<feFlood flood-opacity="0" result="BackgroundImageFix"/>
<feColorMatrix in="SourceAlpha" type="matrix" values="0 0 0 0 0 0 0 0 0 0 0 0 0 0 0 0 0 0 127 0" result="hardAlpha"/>
<feOffset dy="3.5"/>
<feGaussianBlur stdDeviation="2.75"/>
<feColorMatrix type="matrix" values="0 0 0 0 0 0 0 0 0 0 0 0 0 0 0 0 0 0 0.02 0"/>
<feBlend mode="normal" in2="BackgroundImageFix" result="effect1_dropShadow_154_2368"/>
<feBlend mode="normal" in="SourceGraphic" in2="effect1_dropShadow_154_2368" result="shape"/>
</filter>
</defs>
</svg>
