<svg width="53" height="51" viewBox="0 0 53 51" fill="none" xmlns="http://www.w3.org/2000/svg">
<g filter="url(#filter0_d_154_2361)">
<rect x="5.5" y="2" width="42" height="40" rx="12" fill="#E05A1B"/>
<path d="M20.1708 14.2569C24.0988 11.0379 29.9038 11.2619 33.5708 14.9289C37.4758 18.8339 37.4758 25.1659 33.5708 29.0709C29.6658 32.9759 23.3338 32.9759 19.4288 29.0709C18.2304 27.8742 17.3558 26.3925 16.8872 24.7651C16.4186 23.1376 16.3713 21.4177 16.7498 19.7669L16.8268 19.4539L18.7608 19.9639C18.2813 21.7862 18.4605 23.7192 19.2666 25.4223C20.0728 27.1254 21.4543 28.4893 23.1676 29.2736C24.8809 30.0579 26.8161 30.2123 28.632 29.7095C30.448 29.2067 32.0282 28.0791 33.0942 26.5254C34.1602 24.9716 34.6435 23.0914 34.459 21.2162C34.2745 19.341 33.434 17.5911 32.0856 16.2748C30.7373 14.9586 28.9676 14.1606 27.0884 14.0214C25.2093 13.8822 23.3414 14.4108 21.8138 15.5139L21.5928 15.6799L22.6098 16.6969L18.0138 17.7569L19.0738 13.1609L20.1698 14.2569H20.1708ZM27.4998 15.9999V17.9999H29.9998V19.9999H24.4998C24.3748 19.9997 24.2543 20.0463 24.162 20.1304C24.0697 20.2146 24.0122 20.3303 24.0009 20.4548C23.9896 20.5792 24.0253 20.7033 24.101 20.8028C24.1767 20.9022 24.2868 20.9697 24.4098 20.9919L24.4998 20.9999H28.4998C29.1628 20.9999 29.7987 21.2633 30.2675 21.7322C30.7364 22.201 30.9998 22.8369 30.9998 23.4999C30.9998 24.163 30.7364 24.7989 30.2675 25.2677C29.7987 25.7365 29.1628 25.9999 28.4998 25.9999H27.4998V27.9999H25.4998V25.9999H22.9998V23.9999H28.4998C28.6247 24.0002 28.7452 23.9536 28.8376 23.8694C28.9299 23.7852 28.9874 23.6695 28.9986 23.5451C29.0099 23.4207 28.9742 23.2965 28.8986 23.1971C28.8229 23.0977 28.7127 23.0302 28.5898 23.0079L28.4998 22.9999H24.4998C23.8367 22.9999 23.2008 22.7365 22.732 22.2677C22.2632 21.7989 21.9998 21.163 21.9998 20.4999C21.9998 19.8369 22.2632 19.201 22.732 18.7322C23.2008 18.2633 23.8367 17.9999 24.4998 17.9999H25.4998V15.9999H27.4998Z" fill="#FEEFE9"/>
</g>
<defs>
<filter id="filter0_d_154_2361" x="-4.76837e-07" y="-2.38419e-07" width="53" height="51" filterUnits="userSpaceOnUse" color-interpolation-filters="sRGB">
<feFlood flood-opacity="0" result="BackgroundImageFix"/>
<feColorMatrix in="SourceAlpha" type="matrix" values="0 0 0 0 0 0 0 0 0 0 0 0 0 0 0 0 0 0 127 0" result="hardAlpha"/>
<feOffset dy="3.5"/>
<feGaussianBlur stdDeviation="2.75"/>
<feColorMatrix type="matrix" values="0 0 0 0 0 0 0 0 0 0 0 0 0 0 0 0 0 0 0.02 0"/>
<feBlend mode="normal" in2="BackgroundImageFix" result="effect1_dropShadow_154_2361"/>
<feBlend mode="normal" in="SourceGraphic" in2="effect1_dropShadow_154_2361" result="shape"/>
</filter>
</defs>
</svg>
