<svg width="67" height="54" viewBox="0 0 67 54" fill="none" xmlns="http://www.w3.org/2000/svg">
<path d="M0 45.4826H14.693L19.9825 32.0406H27.0351L32.9123 43.2423L41.1404 8.51709H47.6053L52.8947 26.4398H67" stroke="#4CAF50" stroke-width="0.5"/>
<rect x="16.4612" y="43.4612" width="0.577586" height="1.73276" stroke="#C8E6C9" stroke-width="0.577586"/>
<rect x="33.7888" y="43.4612" width="0.577586" height="1.73276" stroke="#C8E6C9" stroke-width="0.577586"/>
<rect x="18.7715" y="38.8406" width="0.577586" height="6.35345" stroke="#C8E6C9" stroke-width="0.577586"/>
<rect x="36.0991" y="35.3747" width="0.577586" height="9.81897" stroke="#C8E6C9" stroke-width="0.577586"/>
<rect x="21.082" y="35.3747" width="0.577586" height="9.81897" stroke="#C8E6C9" stroke-width="0.577586"/>
<rect x="38.4094" y="23.823" width="0.577586" height="21.3707" stroke="#C8E6C9" stroke-width="0.577586"/>
<rect x="23.3923" y="35.3747" width="0.577586" height="9.81897" stroke="#C8E6C9" stroke-width="0.577586"/>
<rect x="40.7199" y="15.737" width="0.577586" height="29.4569" stroke="#C8E6C9" stroke-width="0.577586"/>
<rect x="25.7026" y="36.53" width="0.577586" height="8.66379" stroke="#C8E6C9" stroke-width="0.577586"/>
<rect x="43.0302" y="11.1164" width="0.577586" height="34.0776" stroke="#C8E6C9" stroke-width="0.577586"/>
<rect x="28.0129" y="38.8406" width="0.577586" height="6.35345" stroke="#C8E6C9" stroke-width="0.577586"/>
<rect x="45.3406" y="11.1164" width="0.577586" height="34.0776" stroke="#C8E6C9" stroke-width="0.577586"/>
<rect x="30.3232" y="43.4612" width="0.577586" height="1.73276" stroke="#C8E6C9" stroke-width="0.577586"/>
<rect x="47.6509" y="19.2024" width="0.577586" height="25.9914" stroke="#C8E6C9" stroke-width="0.577586"/>
<rect x="49.9612" y="26.1335" width="0.577586" height="19.0603" stroke="#C8E6C9" stroke-width="0.577586"/>
<rect x="52.2715" y="30.7541" width="0.577586" height="14.4397" stroke="#C8E6C9" stroke-width="0.577586"/>
<rect x="54.582" y="30.7541" width="0.577586" height="14.4397" stroke="#C8E6C9" stroke-width="0.577586"/>
<rect x="56.8923" y="30.7541" width="0.577586" height="14.4397" stroke="#C8E6C9" stroke-width="0.577586"/>
<rect x="59.2026" y="30.7541" width="0.577586" height="14.4397" stroke="#C8E6C9" stroke-width="0.577586"/>
<rect x="61.5129" y="30.7541" width="0.577586" height="14.4397" stroke="#C8E6C9" stroke-width="0.577586"/>
<rect x="63.8232" y="30.7541" width="0.577586" height="14.4397" stroke="#C8E6C9" stroke-width="0.577586"/>
<rect x="66.1335" y="30.7541" width="0.577586" height="14.4397" stroke="#C8E6C9" stroke-width="0.577586"/>
</svg>
