<svg width="96" height="55" viewBox="0 0 96 55" fill="none" xmlns="http://www.w3.org/2000/svg">
<path d="M1.94141 45.0295C4.99978 43.431 10.9572 39.7418 14.6423 35.7423C15.9476 34.3256 18.2542 33.9597 19.6894 35.2445L26.3129 41.1735C26.9808 41.7714 27.8809 42.0393 28.767 41.9039L38.3633 40.4376C38.7915 40.3721 39.2288 40.4002 39.6451 40.5199L48.7991 43.1507C49.7234 43.4163 50.719 43.2227 51.4764 42.6301L58.2574 37.3245C59.1851 36.5987 60.4518 36.4829 61.4957 37.0285L68.8021 40.8474C70.1783 41.5666 71.8758 41.1169 72.7154 39.8108L80.0359 28.4218C81.2918 26.4679 84.1962 26.621 85.2397 28.6962L93.9414 46" stroke="#4CAF50" stroke-width="3" stroke-linecap="round"/>
<path d="M1.94141 54H93.9414" stroke="#C4C4C4" stroke-width="2" stroke-dasharray="6 6"/>
</svg>
