<svg width="64" height="70" viewBox="0 0 64 70" fill="none" xmlns="http://www.w3.org/2000/svg">
<path d="M2.05859 61.0075L3.56982 57.5468C5.17697 53.8664 10.4777 54.1119 11.7378 57.925V57.925C13.0442 61.8784 18.6116 61.9472 20.0153 58.0273L21.6813 53.3747C23.1687 49.2211 28.4464 47.9858 31.6227 51.0478L34.0018 53.3413C36.262 55.5201 38.8592 55.244 39.4128 52.1538C39.8399 49.77 40.1374 46.471 40.0401 42.2117" stroke="#99CFF9" stroke-width="3" stroke-linecap="round"/>
<ellipse cx="40" cy="38.1168" rx="4" ry="4.11678" fill="white" stroke="#99CFF9" stroke-width="3" stroke-linecap="round"/>
<path opacity="0.4" d="M2.11719 60.3511L4.48686 55.114C5.94257 51.8968 10.5059 51.8809 11.984 55.0878V55.0878C13.4241 58.2121 17.8322 58.3008 19.3968 55.2369L21.2421 51.6234C23.0813 48.0218 27.8551 47.1795 30.8159 49.9341L33.7282 52.6436C36.2035 54.9465 39.0038 54.626 39.5623 51.2915C39.9396 49.0388 40.189 46.0237 40.0987 42.2117" stroke="#E9F5FE" stroke-width="3" stroke-linecap="round"/>
<path fill-rule="evenodd" clip-rule="evenodd" d="M53.1533 61.689L57.9929 61.689V49.6886H63.9412L55.5731 35.878L47.2049 49.6886L53.1533 49.6886V61.689Z" fill="#459F49"/>
</svg>
