<svg width="41" height="70" viewBox="0 0 41 70" fill="none" xmlns="http://www.w3.org/2000/svg">
<rect x="0.0588379" y="18" width="3" height="14" rx="1.5" fill="#4CAF50"/>
<rect x="0.0588379" y="33" width="3" height="29" rx="1.5" fill="#4DABF5"/>
<rect x="7.05884" y="26" width="3" height="6" rx="1.5" fill="#4CAF50"/>
<rect x="7.05884" y="33" width="3" height="29" rx="1.5" fill="#4DABF5"/>
<rect x="14.0588" y="12" width="3" height="7" rx="1.5" fill="#4CAF50"/>
<rect x="14.0588" y="20" width="3" height="42" rx="1.5" fill="#4DABF5"/>
<rect x="21.0588" y="20" width="3" height="10" rx="1.5" fill="#4CAF50"/>
<rect x="21.0588" y="31" width="3" height="31" rx="1.5" fill="#4DABF5"/>
<rect x="28.0588" y="31" width="3" height="6" rx="1.5" fill="#4CAF50"/>
<rect x="28.0588" y="38" width="3" height="24" rx="1.5" fill="#4DABF5"/>
<rect x="35.0588" y="18" width="3" height="6" rx="1.5" fill="#4CAF50"/>
<rect x="35.0588" y="25" width="3" height="37" rx="1.5" fill="#4DABF5"/>
</svg>
